<?xml version="1.0" encoding="utf-8"?>
<!-- Generator: Adobe Illustrator 23.0.3, SVG Export Plug-In . SVG Version: 6.00 Build 0)  -->
<svg version="1.1" id="Layer_1" xmlns="http://www.w3.org/2000/svg" xmlns:xlink="http://www.w3.org/1999/xlink" x="0px" y="0px"
	 viewBox="0 0 302.3 298.2" style="enable-background:new 0 0 302.3 298.2;" xml:space="preserve">
<style type="text/css">
	.st0{fill:#CCCCCC;}
	.st1{fill:#999999;}
	.st2{fill:none;stroke:#CCCCCC;stroke-width:5;stroke-linecap:round;stroke-miterlimit:10;}
	.st3{font-family:'DBHelvethaicaX-85Blk';}
	.st4{font-size:102.4199px;}
</style>
<path class="st0" d="M249.4,189.6H54.3c-7.1,0-12.9-5.8-12.9-12.9V55.1c0-7.1,5.8-12.9,12.9-12.9h195.1c7.1,0,12.9,5.8,12.9,12.9
	v121.5C262.3,183.8,256.5,189.6,249.4,189.6z"/>
<path class="st0" d="M273.9,209.9H29.8c-5.5,0-10-4.5-10-10v-5.1c0-5.5,4.5-10,10-10h244.1c5.5,0,10,4.5,10,10v5.1
	C283.8,205.4,279.4,209.9,273.9,209.9z"/>
<path class="st1" d="M167.7,195.1h-31.8c-1.5,0-2.7-1.2-2.7-2.7v-2.2c0-1.5,1.2-2.7,2.7-2.7h31.8c1.5,0,2.7,1.2,2.7,2.7v2.2
	C170.5,193.8,169.2,195.1,167.7,195.1z"/>
<rect x="55.3" y="55.4" class="st1" width="193" height="119.5"/>
<g>
	<rect x="63.7" y="73.8" class="st0" width="5.4" height="94.2"/>
	
		<rect x="124.9" y="104.2" transform="matrix(-1.836970e-16 1 -1 -1.836970e-16 292.8723 37.766)" class="st0" width="5.4" height="122.3"/>
	<line class="st2" x1="67.3" y1="165.3" x2="89.7" y2="142.9"/>
	<line class="st2" x1="114.5" y1="142.5" x2="90.7" y2="142.5"/>
	<line class="st2" x1="136.5" y1="120.9" x2="115.4" y2="142"/>
	<line class="st2" x1="136.4" y1="120.7" x2="149.3" y2="133.6"/>
	<line class="st2" x1="168.3" y1="116.1" x2="150.1" y2="134.3"/>
	<polygon class="st0" points="178.2,106.1 161,111.4 173.1,123.5 	"/>
	<circle class="st0" cx="90.3" cy="143.5" r="8.5"/>
	<circle class="st0" cx="114.9" cy="142.5" r="8.5"/>
	<circle class="st0" cx="135.8" cy="121.3" r="8.5"/>
	<circle class="st0" cx="150.4" cy="134" r="8.5"/>
	<circle class="st0" cx="86" cy="73.8" r="4.9"/>
	<circle class="st0" cx="137" cy="73.8" r="4.9"/>
	<circle class="st0" cx="158.9" cy="73.8" r="4.9"/>
	<circle class="st0" cx="111.3" cy="73.8" r="7.3"/>
	<rect x="193.6" y="84.8" class="st0" width="46.3" height="5.4"/>
	<rect x="193.6" y="99.6" class="st0" width="46.3" height="5.4"/>
	<rect x="193.6" y="114.4" class="st0" width="46.3" height="5.4"/>
	<rect x="213.9" y="129.2" class="st0" width="26" height="5.4"/>
	<rect x="203.5" y="144" class="st0" width="36.4" height="5.4"/>
	<rect x="203.5" y="158.8" class="st0" width="36.4" height="5.4"/>
</g>
<circle class="st1" cx="90.3" cy="143.5" r="5"/>
<circle class="st1" cx="114.9" cy="142.5" r="5"/>
<circle class="st1" cx="135.8" cy="121.6" r="5"/>
<circle class="st1" cx="150.4" cy="134" r="5"/>
<text transform="matrix(1 0 0 1 65.9539 272.8031)" class="st1 st3 st4">E R P </text>
</svg>
